<?xml version="1.0" encoding="UTF-8"?>
<svg xmlns="http://www.w3.org/2000/svg" xmlns:xlink="http://www.w3.org/1999/xlink" width="854" height="480" viewBox="0 0 854 480">
<defs>
<g>
<g id="glyph-0-0">
<path d="M 4.816406 0 L 2.816406 0 L 2.816406 -0.242188 C 2.996094 -0.253906 3.140625 -0.273438 3.257812 -0.308594 C 3.375 -0.34375 3.433594 -0.382812 3.433594 -0.433594 C 3.433594 -0.453125 3.429688 -0.480469 3.425781 -0.507812 C 3.421875 -0.539062 3.414062 -0.5625 3.40625 -0.585938 L 3.007812 -1.664062 L 1.316406 -1.664062 C 1.253906 -1.507812 1.203125 -1.367188 1.164062 -1.25 C 1.125 -1.132812 1.085938 -1.023438 1.054688 -0.925781 C 1.027344 -0.828125 1.007812 -0.75 0.996094 -0.6875 C 0.984375 -0.628906 0.976562 -0.578125 0.976562 -0.539062 C 0.976562 -0.449219 1.050781 -0.378906 1.191406 -0.328125 C 1.332031 -0.277344 1.496094 -0.25 1.671875 -0.242188 L 1.671875 0 L -0.140625 0 L -0.140625 -0.242188 C -0.0820312 -0.246094 -0.0078125 -0.257812 0.0820312 -0.28125 C 0.167969 -0.300781 0.242188 -0.328125 0.296875 -0.367188 C 0.390625 -0.425781 0.457031 -0.492188 0.507812 -0.558594 C 0.558594 -0.625 0.605469 -0.714844 0.65625 -0.835938 C 0.894531 -1.4375 1.164062 -2.117188 1.453125 -2.867188 C 1.746094 -3.621094 2.007812 -4.292969 2.234375 -4.878906 L 2.503906 -4.878906 L 4.109375 -0.730469 C 4.144531 -0.640625 4.183594 -0.570312 4.226562 -0.515625 C 4.269531 -0.460938 4.328125 -0.40625 4.40625 -0.355469 C 4.457031 -0.324219 4.523438 -0.296875 4.609375 -0.277344 C 4.691406 -0.253906 4.761719 -0.242188 4.816406 -0.242188 L 4.816406 0 M 2.882812 -1.964844 L 2.152344 -3.832031 L 1.433594 -1.964844 Z "/>
</g>
<g id="glyph-0-1">
<path d="M 4.378906 -1.417969 L 4.285156 0 L 0.292969 0 L 0.292969 -0.242188 C 0.359375 -0.246094 0.449219 -0.253906 0.5625 -0.269531 C 0.675781 -0.285156 0.75 -0.300781 0.785156 -0.316406 C 0.855469 -0.347656 0.90625 -0.394531 0.933594 -0.449219 C 0.960938 -0.5 0.976562 -0.570312 0.976562 -0.65625 L 0.976562 -4.113281 C 0.976562 -4.1875 0.964844 -4.253906 0.9375 -4.3125 C 0.914062 -4.367188 0.863281 -4.414062 0.785156 -4.453125 C 0.722656 -4.480469 0.640625 -4.507812 0.539062 -4.53125 C 0.433594 -4.550781 0.351562 -4.566406 0.292969 -4.570312 L 0.292969 -4.8125 L 4.015625 -4.8125 L 4.015625 -3.652344 L 3.761719 -3.652344 C 3.714844 -3.824219 3.617188 -4.007812 3.46875 -4.199219 C 3.316406 -4.390625 3.171875 -4.5 3.039062 -4.515625 C 2.96875 -4.523438 2.882812 -4.53125 2.785156 -4.535156 C 2.691406 -4.542969 2.578125 -4.542969 2.453125 -4.542969 L 1.699219 -4.542969 L 1.699219 -2.632812 L 2.242188 -2.632812 C 2.414062 -2.632812 2.542969 -2.648438 2.621094 -2.679688 C 2.703125 -2.714844 2.773438 -2.769531 2.835938 -2.84375 C 2.882812 -2.910156 2.925781 -2.996094 2.960938 -3.109375 C 2.996094 -3.21875 3.019531 -3.320312 3.03125 -3.417969 L 3.285156 -3.417969 L 3.285156 -1.53125 L 3.03125 -1.53125 C 3.023438 -1.640625 2.996094 -1.753906 2.957031 -1.875 C 2.917969 -1.996094 2.878906 -2.085938 2.835938 -2.140625 C 2.765625 -2.226562 2.683594 -2.285156 2.59375 -2.3125 C 2.507812 -2.339844 2.386719 -2.351562 2.242188 -2.351562 L 1.699219 -2.351562 L 1.699219 -0.910156 C 1.699219 -0.765625 1.707031 -0.652344 1.730469 -0.570312 C 1.75 -0.484375 1.789062 -0.421875 1.847656 -0.378906 C 1.90625 -0.335938 1.988281 -0.308594 2.089844 -0.296875 C 2.191406 -0.285156 2.335938 -0.277344 2.523438 -0.277344 C 2.597656 -0.277344 2.695312 -0.277344 2.816406 -0.277344 C 2.941406 -0.277344 3.042969 -0.28125 3.125 -0.292969 C 3.210938 -0.300781 3.300781 -0.316406 3.390625 -0.339844 C 3.484375 -0.363281 3.550781 -0.398438 3.585938 -0.4375 C 3.691406 -0.546875 3.800781 -0.710938 3.914062 -0.929688 C 4.027344 -1.152344 4.101562 -1.3125 4.132812 -1.417969 Z "/>
</g>
<g id="glyph-0-2">
</g>
<g id="glyph-0-3">
<path d="M 3.941406 -2.316406 L 0.523438 -2.316406 L 0.523438 -2.738281 L 3.941406 -2.738281 L 3.941406 -2.316406 M 3.941406 -1.054688 L 0.523438 -1.054688 L 0.523438 -1.476562 L 3.941406 -1.476562 Z "/>
</g>
<g id="glyph-0-4">
<path d="M 1.789062 0.0898438 C 1.304688 0.0898438 0.929688 -0.0742188 0.65625 -0.394531 C 0.382812 -0.714844 0.242188 -1.144531 0.242188 -1.683594 C 0.242188 -1.921875 0.28125 -2.140625 0.355469 -2.34375 C 0.429688 -2.550781 0.535156 -2.734375 0.675781 -2.902344 C 0.808594 -3.0625 0.976562 -3.191406 1.175781 -3.289062 C 1.378906 -3.390625 1.597656 -3.4375 1.835938 -3.4375 C 2.160156 -3.4375 2.429688 -3.359375 2.632812 -3.203125 C 2.839844 -3.046875 2.941406 -2.832031 2.941406 -2.558594 C 2.941406 -2.445312 2.914062 -2.347656 2.863281 -2.261719 C 2.808594 -2.171875 2.71875 -2.128906 2.59375 -2.128906 C 2.460938 -2.128906 2.355469 -2.164062 2.285156 -2.230469 C 2.210938 -2.296875 2.171875 -2.375 2.171875 -2.457031 C 2.171875 -2.558594 2.1875 -2.664062 2.214844 -2.769531 C 2.242188 -2.875 2.257812 -2.957031 2.261719 -3.003906 C 2.222656 -3.074219 2.160156 -3.121094 2.082031 -3.144531 C 2 -3.167969 1.914062 -3.179688 1.820312 -3.179688 C 1.714844 -3.179688 1.609375 -3.15625 1.511719 -3.109375 C 1.414062 -3.066406 1.320312 -2.980469 1.226562 -2.855469 C 1.144531 -2.742188 1.074219 -2.589844 1.023438 -2.398438 C 0.972656 -2.203125 0.945312 -1.976562 0.945312 -1.707031 C 0.945312 -1.289062 1.039062 -0.945312 1.226562 -0.679688 C 1.410156 -0.414062 1.65625 -0.28125 1.957031 -0.28125 C 2.175781 -0.28125 2.359375 -0.335938 2.507812 -0.441406 C 2.65625 -0.546875 2.792969 -0.707031 2.917969 -0.921875 L 3.136719 -0.78125 C 2.988281 -0.511719 2.789062 -0.300781 2.546875 -0.144531 C 2.300781 0.0117188 2.050781 0.0898438 1.789062 0.0898438 Z "/>
</g>
</g>
</defs>
<g fill="rgb(100%, 100%, 100%)" fill-opacity="1">
<use xlink:href="#glyph-0-0" x="30" y="26.367188"/>
<use xlink:href="#glyph-0-1" x="35" y="26.367188"/>
<use xlink:href="#glyph-0-2" x="40" y="26.367188"/>
<use xlink:href="#glyph-0-3" x="42" y="26.367188"/>
<use xlink:href="#glyph-0-2" x="46" y="26.367188"/>
<use xlink:href="#glyph-0-4" x="48" y="26.367188"/>
</g>
</svg>
